<?xml version="1.0" encoding="UTF-8" standalone="no"?><svg xmlns="http://www.w3.org/2000/svg" xmlns:xlink="http://www.w3.org/1999/xlink" clip-rule="evenodd" stroke-miterlimit="4.00" viewBox="0 0 720 540"><desc>SVG generated by Keynote</desc><defs></defs><g transform="matrix(1.00, 0.00, -0.00, -1.00, 0.0, 540.0)"><path d="M 0.0 540.0 L 720.0 540.0 L 720.0 0.0 L 0.0 0.0 Z M 0.0 540.0 " fill="#FFFFFF"></path><g><clipPath id="clip-151"><path d="M -0.8 -1.3 L 720.8 -1.3 L 720.8 30.1 L -0.8 30.1 Z M -0.8 -1.3 "></path></clipPath><g clip-path="url(#clip-151)"><path d="M 0.2 29.1 L 719.8 29.1 L 719.8 -0.3 L 0.2 -0.3 Z M 0.2 29.1 " fill="#007DB6"></path></g></g><g><clipPath id="clip-152"><path d="M 616.1 -0.3 L 712.7 -0.3 L 712.7 29.1 L 616.1 29.1 Z M 616.1 -0.3 "></path></clipPath><g clip-path="url(#clip-152)"><image xlink:href="../../AF912F80-8CF7-42B6-8289-085E09251F04/assets/3ED7A7175BABB677C3E0E503D3848066.png" width="97.00" height="29.00" transform="matrix(1.00, 0.00, -0.00, -1.00, 616.0, 29.0)"></image></g></g><image xlink:href="5C71DCA57999A4B1B60BF62FBBED7C5A.png" width="195.00" height="61.00" transform="matrix(1.00, 0.00, -0.00, -1.00, 196.0, 313.0)"></image><text xml:space="preserve" font-family="Helvetica-Bold" font-weight="bold" font-size="70.0" fill="#404040" transform="matrix(1.00, 0.00, -0.00, -1.00, 200.0, 262.0)">t</text><text xml:space="preserve" font-family="Helvetica-Bold" font-weight="bold" font-size="70.0" fill="#404040" transform="matrix(1.00, 0.00, -0.00, -1.00, 223.3, 262.0)">h</text><text xml:space="preserve" font-family="Helvetica-Bold" font-weight="bold" font-size="70.0" fill="#404040" transform="matrix(1.00, 0.00, -0.00, -1.00, 266.1, 262.0)">a</text><text xml:space="preserve" font-family="Helvetica-Bold" font-weight="bold" font-size="70.0" fill="#404040" transform="matrix(1.00, 0.00, -0.00, -1.00, 305.0, 262.0)">n</text><text xml:space="preserve" font-family="Helvetica-Bold" font-weight="bold" font-size="70.0" fill="#404040" transform="matrix(1.00, 0.00, -0.00, -1.00, 347.7, 262.0)">k</text><text xml:space="preserve" font-family="Helvetica-Bold" font-weight="bold" font-size="70.0" fill="#404040" transform="matrix(1.00, 0.00, -0.00, -1.00, 386.7, 262.0)"> </text><image xlink:href="E289D116A191DF4F20F07A4034E70999.png" width="128.00" height="63.00" transform="matrix(1.00, 0.00, -0.00, -1.00, 402.0, 301.0)"></image><text xml:space="preserve" font-family="Helvetica-Bold" font-weight="bold" font-size="70.0" fill="#00B0F0" transform="matrix(1.00, 0.00, -0.00, -1.00, 406.1, 262.0)">y</text><text xml:space="preserve" font-family="Helvetica-Bold" font-weight="bold" font-size="70.0" fill="#00B0F0" transform="matrix(1.00, 0.00, -0.00, -1.00, 445.1, 262.0)">o</text><text xml:space="preserve" font-family="Helvetica-Bold" font-weight="bold" font-size="70.0" fill="#00B0F0" transform="matrix(1.00, 0.00, -0.00, -1.00, 487.9, 262.0)">u</text></g></svg>